<svg width="140" height="30" viewBox="0 0 140 30" fill="none" xmlns="http://www.w3.org/2000/svg">
<path fill-rule="evenodd" clip-rule="evenodd" d="M5.57317 1.1155L5.65574 7.47303L10.8161 7.4978C13.6563 7.50606 16.059 7.4978 16.348 7.43175V1.07422H21.8799L21.8386 18.5038H16.3892L16.3067 12.1793H5.65574L5.61445 18.4955H2.84851C0.462367 18.4955 0.0743089 18.479 0.0412827 18.3717C0.0165131 18.3056 0 14.4415 0 9.78486C0 5.12818 0.0247696 1.26412 0.0495393 1.19807C0.090822 1.09073 0.45411 1.07422 5.57317 1.1155Z" fill="white"/>
<path fill-rule="evenodd" clip-rule="evenodd" d="M38.2302 0C38.8063 0.685292 49.7852 13.838 50.5829 14.804C50.4726 14.9848 50.2516 15.3513 49.9783 15.8046C49.1033 17.2559 47.6917 19.5971 47.658 19.5845C47.6137 19.568 46.9844 18.8332 44.9812 16.3479L31.5267 16.2984L30.1972 17.9249C29.4616 18.8166 28.8411 19.5597 28.7968 19.5762C28.7614 19.5928 26.1756 15.3984 25.8453 14.8452C26.6164 13.904 37.9731 0.305492 38.2302 0ZM38.23 8.09173C38.2713 8.09173 38.9807 8.91738 39.7518 9.86688C40.514 10.8246 41.1758 11.7163 41.2024 11.7824H35.2049C35.2049 11.7824 35.8696 10.899 36.6762 9.89991C37.4916 8.89261 38.1887 8.09173 38.23 8.09173Z" fill="white"/>
<path fill-rule="evenodd" clip-rule="evenodd" d="M127.647 0C128.223 0.685292 139.202 13.838 140 14.804C139.89 14.9848 139.669 15.3513 139.395 15.8046C138.52 17.2559 137.109 19.5971 137.075 19.5845C137.031 19.568 136.401 18.8332 134.398 16.3479L120.944 16.2984L119.614 17.9249C118.879 18.8166 118.258 19.5597 118.214 19.5762C118.178 19.5928 115.593 15.3984 115.262 14.8452C116.033 13.904 127.39 0.305492 127.647 0ZM127.647 8.09173C127.688 8.09173 128.398 8.91738 129.169 9.86688C129.931 10.8246 130.593 11.7163 130.619 11.7824H124.622C124.622 11.7824 125.287 10.899 126.093 9.89991C126.909 8.89261 127.606 8.09173 127.647 8.09173Z" fill="white"/>
<path fill-rule="evenodd" clip-rule="evenodd" d="M89.2116 0.837824C90.8381 0.854337 92.1344 0.912133 92.7619 0.994698C93.3068 1.06075 93.9756 1.15983 94.2481 1.20937C94.5205 1.25065 95.1315 1.39101 95.6104 1.5066C96.0893 1.63045 96.8324 1.86163 97.2617 2.01851C97.691 2.18364 98.3763 2.50564 98.7809 2.72857C99.3093 3.02581 99.7222 3.34781 100.226 3.8432C100.762 4.37988 101.01 4.69363 101.241 5.16425C101.406 5.50277 101.605 6.02293 101.671 6.32016C101.745 6.6174 101.803 7.22838 101.803 7.68249C101.803 8.2687 101.753 8.68979 101.629 9.12738C101.539 9.4659 101.324 9.98606 101.167 10.2833C101.002 10.5805 100.655 11.0346 100.407 11.2989C100.151 11.5713 99.7222 11.9429 99.4497 12.141C99.1772 12.3309 98.6736 12.6282 98.3351 12.8015C97.9965 12.9749 97.3443 13.2309 96.8902 13.3795C96.4361 13.5281 95.6021 13.751 95.0324 13.8584C94.4627 13.974 93.5875 14.1226 93.0922 14.1804C92.4812 14.2547 91.1188 14.2877 85.7025 14.2877V18.7875H80.1707V9.99432C80.1707 5.15599 80.1954 1.1846 80.2285 1.16809C80.2697 1.15157 81.2192 1.07726 82.3586 1.00295C83.4898 0.928646 84.9264 0.854337 85.5374 0.837824C86.1484 0.821311 87.7997 0.821311 89.2116 0.837824ZM88.7575 5.58488C90.0951 5.58488 91.507 5.60965 91.895 5.65919C92.2831 5.70047 92.8363 5.78303 93.1335 5.83257C93.4307 5.88211 93.8766 5.98119 94.1243 6.04724C94.372 6.12155 94.7931 6.27843 95.0573 6.41053C95.3132 6.54263 95.6187 6.77382 95.7261 6.91418C95.8417 7.0628 95.9572 7.27747 95.982 7.39306C96.015 7.50865 95.9985 7.73983 95.949 7.90496C95.8912 8.10312 95.7261 8.32605 95.5114 8.50769C95.3132 8.67282 94.9169 8.88749 94.6197 9.00308C94.3224 9.11042 93.8023 9.25904 93.4638 9.32509C93.1252 9.39114 92.5473 9.49022 92.184 9.53976C91.7712 9.59755 90.4419 9.62232 85.7439 9.58104V5.70047L86.0329 5.65093C86.1897 5.6179 87.42 5.59313 88.7575 5.58488Z" fill="white"/>
<path fill-rule="evenodd" clip-rule="evenodd" d="M111.301 1.07275V18.494H105.769L105.81 9.94853C105.807 8.4598 105.802 7.04283 105.798 5.79739C105.788 3.05735 105.782 1.14758 105.81 1.13055C105.851 1.09752 107.098 1.07275 111.301 1.07275Z" fill="white"/>
<path fill-rule="evenodd" clip-rule="evenodd" d="M63.9483 0.343623C65.9876 0.368392 66.8793 0.409675 67.8701 0.533523C68.5719 0.624345 69.6535 0.830758 70.2645 0.987632C70.8755 1.14451 71.7094 1.40046 72.1222 1.56559C72.5268 1.73072 73.1626 2.03621 73.5259 2.25088C73.9222 2.48207 74.4341 2.88664 74.8056 3.25818C75.235 3.68752 75.5157 4.05081 75.6891 4.42235C75.8294 4.71959 76.0028 5.16544 76.0771 5.41314C76.1597 5.70211 76.2092 6.17274 76.2092 6.6929C76.2092 7.14701 76.1514 7.72497 76.0854 7.97266C76.0193 8.22036 75.8377 8.68272 75.6808 9.00473C75.5157 9.3515 75.1689 9.83038 74.8304 10.1937C74.5249 10.5322 74.046 10.9615 73.7736 11.1514C73.5011 11.3496 73.0057 11.6386 72.6754 11.8037C72.3534 11.9688 72.081 12.1257 72.081 12.1587C72.081 12.2 72.9066 13.0752 73.9139 14.1155C74.9295 15.1558 75.7551 16.0393 75.7551 16.0888C75.7551 16.1384 74.8634 16.8567 73.7736 17.6823C72.6837 18.5163 71.7425 19.1933 71.6847 19.1933C71.6351 19.2016 71.2223 18.8052 70.7847 18.3098C70.3471 17.8227 69.571 16.9805 69.0673 16.4356C69.0279 16.3929 68.9864 16.3481 68.9428 16.3009C68.4294 15.7456 67.6179 14.8679 66.3014 13.422L64.7904 13.4715C63.9648 13.4963 62.6025 13.488 61.7603 13.4467C60.6952 13.389 60.2163 13.3972 60.175 13.455C60.142 13.5045 60.109 14.6109 60.109 18.2933H54.5771V9.50012C54.5771 4.66179 54.6019 0.690397 54.6349 0.673884C54.6762 0.657371 55.7 0.583062 56.9302 0.508753C58.1522 0.434445 59.6384 0.360136 60.2328 0.343623C60.819 0.32711 62.4951 0.32711 63.9483 0.343623ZM63.164 5.0919C64.8731 5.08364 65.9051 5.11667 66.6317 5.20749C67.2014 5.27354 67.9032 5.38088 68.2005 5.44693C68.4977 5.51298 68.9601 5.64509 69.2325 5.75242C69.505 5.85976 69.8435 6.0414 69.9756 6.15699C70.1077 6.28084 70.2729 6.48725 70.3306 6.61936C70.405 6.75972 70.4215 6.98264 70.3967 7.16429C70.3637 7.36244 70.2481 7.57711 70.083 7.74225C69.9343 7.88261 69.6288 8.08902 69.3977 8.1881C69.1747 8.29543 68.7619 8.43579 68.4894 8.5101C68.217 8.57615 67.639 8.69175 67.2097 8.76606C66.6895 8.84862 65.6162 8.90642 64.0309 8.93119C62.7099 8.95596 61.3062 8.9477 60.1503 8.84036V5.20749L60.4393 5.15795C60.5962 5.12492 61.8264 5.10015 63.164 5.0919Z" fill="white"/>
<path d="M19.7983 29.0087C19.4904 29.0087 19.196 28.9656 18.9151 28.8793C18.6342 28.7895 18.413 28.6746 18.2513 28.5345L18.4649 28.1142C18.6188 28.2399 18.8151 28.3441 19.0537 28.4267C19.2922 28.5093 19.5404 28.5507 19.7983 28.5507C20.033 28.5507 20.2235 28.5255 20.3697 28.4752C20.5159 28.4249 20.6237 28.3567 20.6929 28.2705C20.7622 28.1807 20.7968 28.0801 20.7968 27.9687C20.7968 27.8394 20.7506 27.7352 20.6583 27.6562C20.5698 27.5772 20.4524 27.5143 20.3062 27.4676C20.1638 27.4173 20.006 27.3742 19.8329 27.3383C19.6597 27.3024 19.4846 27.2611 19.3076 27.2144C19.1345 27.1641 18.9748 27.1012 18.8285 27.0258C18.6862 26.9503 18.5707 26.8497 18.4822 26.724C18.3937 26.5947 18.3495 26.4295 18.3495 26.2283C18.3495 26.0343 18.4033 25.8565 18.5111 25.6949C18.6227 25.5296 18.792 25.3985 19.019 25.3015C19.2499 25.2009 19.5424 25.1506 19.8964 25.1506C20.1311 25.1506 20.3639 25.1794 20.5948 25.2368C20.8257 25.2943 21.0258 25.3769 21.1951 25.4847L21.0046 25.9158C20.8315 25.808 20.6487 25.7308 20.4563 25.6841C20.2639 25.6338 20.0772 25.6086 19.8964 25.6086C19.6693 25.6086 19.4827 25.6356 19.3365 25.6895C19.1903 25.7433 19.0825 25.8152 19.0133 25.905C18.9478 25.9948 18.9151 26.0954 18.9151 26.2067C18.9151 26.3397 18.9594 26.4456 19.0479 26.5247C19.1402 26.6037 19.2576 26.6665 19.4 26.7132C19.5462 26.7599 19.7059 26.8031 19.8791 26.8426C20.0522 26.8785 20.2254 26.9198 20.3985 26.9665C20.5756 27.0132 20.7353 27.0743 20.8776 27.1497C21.0239 27.2251 21.1412 27.3257 21.2297 27.4514C21.3182 27.5772 21.3625 27.7388 21.3625 27.9364C21.3625 28.1268 21.3067 28.3046 21.1951 28.4698C21.0835 28.6315 20.9103 28.7626 20.6756 28.8632C20.4447 28.9602 20.1523 29.0087 19.7983 29.0087Z" fill="white"/>
<path d="M25.3515 28.9656V25.1937H25.9287V28.9656H25.3515Z" fill="white"/>
<path d="M30.8094 26.821H32.8874V27.279H30.8094V26.821ZM30.8614 28.4968H33.2164V28.9656H30.2842V25.1937H33.1355V25.6625H30.8614V28.4968Z" fill="white"/>
<path d="M37.2968 28.9656V25.1937H37.7701L39.5825 28.0442H39.3285L41.1179 25.1937H41.5912L41.5969 28.9656H41.0428L41.0371 26.0074H41.1698L39.5767 28.5076H39.3112L37.7066 26.0074H37.8509V28.9656H37.2968Z" fill="white"/>
<path d="M50.6512 28.9656V25.1937H52.4636C52.9292 25.1937 53.2871 25.2818 53.5372 25.4578C53.7873 25.6302 53.9124 25.8673 53.9124 26.169C53.9124 26.3738 53.8624 26.5462 53.7623 26.6863C53.6661 26.8264 53.5353 26.9342 53.3698 27.0096C53.2044 27.085 53.0254 27.1228 52.833 27.1228L52.9369 26.9611C53.1678 26.9611 53.3717 26.9988 53.5488 27.0743C53.7258 27.1497 53.8662 27.2611 53.9701 27.4083C54.074 27.552 54.126 27.7316 54.126 27.9472C54.126 28.2705 53.9951 28.5219 53.7335 28.7015C53.4756 28.8776 53.0908 28.9656 52.5791 28.9656H50.6512ZM51.2284 28.5291H52.556C52.8754 28.5291 53.1197 28.4788 53.289 28.3782C53.4583 28.2777 53.543 28.1196 53.543 27.9041C53.543 27.6849 53.4583 27.5251 53.289 27.4245C53.1197 27.3239 52.8754 27.2736 52.556 27.2736H51.1764V26.8372H52.4117C52.7041 26.8372 52.9311 26.7869 53.0928 26.6863C53.2544 26.5857 53.3352 26.4348 53.3352 26.2337C53.3352 26.0325 53.2544 25.8816 53.0928 25.7811C52.9311 25.6805 52.7041 25.6302 52.4117 25.6302H51.2284V28.5291Z" fill="white"/>
<path d="M59.0564 28.9656V27.5215L59.1891 27.8556L57.4518 25.1937H58.0694L59.5297 27.4407H59.1949L60.661 25.1937H61.2324L59.5008 27.8556L59.6278 27.5215V28.9656H59.0564Z" fill="white"/>
<path d="M70.8372 29.0087C70.5294 29.0087 70.235 28.9656 69.9541 28.8793C69.6732 28.7895 69.452 28.6746 69.2903 28.5345L69.5039 28.1142C69.6578 28.2399 69.8541 28.3441 70.0927 28.4267C70.3312 28.5093 70.5794 28.5507 70.8372 28.5507C71.072 28.5507 71.2625 28.5255 71.4087 28.4752C71.5549 28.4249 71.6627 28.3567 71.7319 28.2705C71.8012 28.1807 71.8358 28.0801 71.8358 27.9687C71.8358 27.8394 71.7896 27.7352 71.6973 27.6562C71.6088 27.5772 71.4914 27.5143 71.3452 27.4676C71.2028 27.4173 71.045 27.3742 70.8719 27.3383C70.6987 27.3024 70.5236 27.2611 70.3466 27.2144C70.1735 27.1641 70.0138 27.1012 69.8675 27.0258C69.7252 26.9503 69.6097 26.8497 69.5212 26.724C69.4327 26.5947 69.3885 26.4295 69.3885 26.2283C69.3885 26.0343 69.4423 25.8565 69.5501 25.6949C69.6617 25.5296 69.831 25.3985 70.058 25.3015C70.2889 25.2009 70.5814 25.1506 70.9354 25.1506C71.1701 25.1506 71.4029 25.1794 71.6338 25.2368C71.8647 25.2943 72.0648 25.3769 72.2341 25.4847L72.0436 25.9158C71.8704 25.808 71.6877 25.7308 71.4953 25.6841C71.3029 25.6338 71.1162 25.6086 70.9354 25.6086C70.7083 25.6086 70.5217 25.6356 70.3755 25.6895C70.2293 25.7433 70.1215 25.8152 70.0522 25.905C69.9868 25.9948 69.9541 26.0954 69.9541 26.2067C69.9541 26.3397 69.9984 26.4456 70.0869 26.5247C70.1792 26.6037 70.2966 26.6665 70.439 26.7132C70.5852 26.7599 70.7449 26.8031 70.9181 26.8426C71.0912 26.8785 71.2644 26.9198 71.4375 26.9665C71.6146 27.0132 71.7742 27.0743 71.9166 27.1497C72.0628 27.2251 72.1802 27.3257 72.2687 27.4514C72.3572 27.5772 72.4015 27.7388 72.4015 27.9364C72.4015 28.1268 72.3457 28.3046 72.2341 28.4698C72.1225 28.6315 71.9493 28.7626 71.7146 28.8632C71.4837 28.9602 71.1913 29.0087 70.8372 29.0087Z" fill="white"/>
<path d="M75.7787 28.9656L77.6084 25.1937H78.1799L80.0154 28.9656H79.4093L77.7758 25.4955H78.0067L76.3732 28.9656H75.7787ZM76.5579 28.0226L76.7137 27.5915H78.9879L79.1553 28.0226H76.5579Z" fill="white"/>
<path d="M84.2834 26.9773H86.3671V27.4407H84.2834V26.9773ZM84.3411 28.9656H83.7639V25.1937H86.6153V25.6625H84.3411V28.9656Z" fill="white"/>
<path d="M91.0988 26.821H93.1768V27.279H91.0988V26.821ZM91.1508 28.4968H93.5058V28.9656H90.5735V25.1937H93.4249V25.6625H91.1508V28.4968Z" fill="white"/>
<path d="M97.5862 28.9656V25.1937H98.1634V28.4968H100.351V28.9656H97.5862Z" fill="white"/>
<path d="M103.547 28.9656L105.377 25.1937H105.948L107.784 28.9656H107.178L105.544 25.4955H105.775L104.142 28.9656H103.547ZM104.326 28.0226L104.482 27.5915H106.757L106.924 28.0226H104.326Z" fill="white"/>
<path d="M111.532 28.9656V25.1937H113.345C113.81 25.1937 114.168 25.2818 114.418 25.4578C114.669 25.6302 114.794 25.8673 114.794 26.169C114.794 26.3738 114.744 26.5462 114.644 26.6863C114.547 26.8264 114.417 26.9342 114.251 27.0096C114.086 27.085 113.907 27.1228 113.714 27.1228L113.818 26.9611C114.049 26.9611 114.253 26.9988 114.43 27.0743C114.607 27.1497 114.747 27.2611 114.851 27.4083C114.955 27.552 115.007 27.7316 115.007 27.9472C115.007 28.2705 114.876 28.5219 114.615 28.7015C114.357 28.8776 113.972 28.9656 113.46 28.9656H111.532ZM112.11 28.5291H113.437C113.757 28.5291 114.001 28.4788 114.17 28.3782C114.34 28.2777 114.424 28.1196 114.424 27.9041C114.424 27.6849 114.34 27.5251 114.17 27.4245C114.001 27.3239 113.757 27.2736 113.437 27.2736H112.058V26.8372H113.293C113.585 26.8372 113.812 26.7869 113.974 26.6863C114.136 26.5857 114.216 26.4348 114.216 26.2337C114.216 26.0325 114.136 25.8816 113.974 25.7811C113.812 25.6805 113.585 25.6302 113.293 25.6302H112.11V28.5291Z" fill="white"/>
<path d="M120.224 29.0087C119.916 29.0087 119.622 28.9656 119.341 28.8793C119.06 28.7895 118.839 28.6746 118.677 28.5345L118.891 28.1142C119.045 28.2399 119.241 28.3441 119.48 28.4267C119.718 28.5093 119.966 28.5507 120.224 28.5507C120.459 28.5507 120.649 28.5255 120.796 28.4752C120.942 28.4249 121.05 28.3567 121.119 28.2705C121.188 28.1807 121.223 28.0801 121.223 27.9687C121.223 27.8394 121.177 27.7352 121.084 27.6562C120.996 27.5772 120.878 27.5143 120.732 27.4676C120.59 27.4173 120.432 27.3742 120.259 27.3383C120.086 27.3024 119.911 27.2611 119.734 27.2144C119.56 27.1641 119.401 27.1012 119.255 27.0258C119.112 26.9503 118.997 26.8497 118.908 26.724C118.82 26.5947 118.775 26.4295 118.775 26.2283C118.775 26.0343 118.829 25.8565 118.937 25.6949C119.049 25.5296 119.218 25.3985 119.445 25.3015C119.676 25.2009 119.968 25.1506 120.322 25.1506C120.557 25.1506 120.79 25.1794 121.021 25.2368C121.252 25.2943 121.452 25.3769 121.621 25.4847L121.431 25.9158C121.257 25.808 121.075 25.7308 120.882 25.6841C120.69 25.6338 120.503 25.6086 120.322 25.6086C120.095 25.6086 119.909 25.6356 119.762 25.6895C119.616 25.7433 119.508 25.8152 119.439 25.905C119.374 25.9948 119.341 26.0954 119.341 26.2067C119.341 26.3397 119.385 26.4456 119.474 26.5247C119.566 26.6037 119.684 26.6665 119.826 26.7132C119.972 26.7599 120.132 26.8031 120.305 26.8426C120.478 26.8785 120.651 26.9198 120.825 26.9665C121.002 27.0132 121.161 27.0743 121.304 27.1497C121.45 27.2251 121.567 27.3257 121.656 27.4514C121.744 27.5772 121.788 27.7388 121.788 27.9364C121.788 28.1268 121.733 28.3046 121.621 28.4698C121.509 28.6315 121.336 28.7626 121.102 28.8632C120.871 28.9602 120.578 29.0087 120.224 29.0087Z" fill="white"/>
</svg>
