<svg width="345" height="576" viewBox="0 0 345 576" fill="none" xmlns="http://www.w3.org/2000/svg">
<path d="M637.215 575.913C638.956 575.351 640 483.623 640 372.2V295.462L553.512 219.891L596.343 169.612H554.356L520.586 204.221L486.816 238.548C486.816 342.375 485.771 355.036 482.29 354.192C480.201 353.911 463.49 344.626 445.734 333.933C425.542 321.834 412.312 315.644 410.223 317.333C408.831 319.021 389.335 339.28 367.053 362.352C344.772 385.706 326.668 405.121 327.016 405.965C327.016 406.809 396.298 445.638 480.897 492.065C565.497 538.772 635.822 576.476 637.215 575.913Z" fill="url(#paint0_linear_2812_170437)" fill-opacity="0.25"/>
<path d="M2.78522 575.913C1.04446 575.351 6.10352e-05 483.623 6.10352e-05 372.2V295.462L86.4878 219.891L43.6575 169.612H85.6441L119.414 204.221L153.184 238.548C153.184 342.375 154.229 355.036 157.71 354.192C159.799 353.911 176.51 344.626 194.266 333.933C214.458 321.834 227.688 315.644 229.777 317.333C231.169 319.021 250.665 339.28 272.947 362.352C295.228 385.706 313.332 405.121 312.984 405.965C312.984 406.809 243.703 445.638 159.103 492.065C74.5034 538.772 4.1778 576.476 2.78522 575.913Z" fill="url(#paint1_linear_2812_170437)" fill-opacity="0.25"/>
<path fill-rule="evenodd" clip-rule="evenodd" d="M319.889 394.521C331.422 380.802 552.14 115.043 568.109 95.704C565.902 92.0845 561.478 84.7473 556.006 75.6717C538.489 46.6181 510.231 -0.250885 509.555 0.00100708C508.668 0.331604 496.07 15.0424 455.969 64.7948L186.621 65.7865L160.005 33.2243C145.278 15.373 132.858 0.496857 131.971 0.16629C131.261 -0.164307 79.4957 83.8031 72.8842 94.8776C88.3211 113.721 314.743 388.405 319.889 394.521ZM320.822 230.085C321.648 230.085 335.849 213.556 351.286 194.548C366.546 175.374 379.794 157.523 380.326 156.201H260.261C260.261 156.201 273.569 173.887 289.716 193.887C306.04 214.052 319.996 230.085 320.822 230.085Z" fill="url(#paint2_linear_2812_170437)" fill-opacity="0.2"/>
<path d="M72.88 95.033L319.823 394.846L568.105 95.7022L319.823 358.039L72.88 95.033Z" fill="white" fill-opacity="0.1"/>
<defs>
<linearGradient id="paint0_linear_2812_170437" x1="574.305" y1="169.612" x2="334.935" y2="423.548" gradientUnits="userSpaceOnUse">
<stop stop-color="white" stop-opacity="0.5"/>
<stop offset="1" stop-color="white" stop-opacity="0"/>
</linearGradient>
<linearGradient id="paint1_linear_2812_170437" x1="65.6954" y1="169.612" x2="305.065" y2="423.548" gradientUnits="userSpaceOnUse">
<stop stop-color="white" stop-opacity="0.5"/>
<stop offset="1" stop-color="white" stop-opacity="0"/>
</linearGradient>
<linearGradient id="paint2_linear_2812_170437" x1="320.228" y1="413.372" x2="320.813" y2="-33.109" gradientUnits="userSpaceOnUse">
<stop stop-color="white"/>
<stop offset="1" stop-color="white" stop-opacity="0"/>
</linearGradient>
</defs>
</svg>
